<svg width="25" height="25" viewBox="0 0 25 25" fill="none" xmlns="http://www.w3.org/2000/svg">
<rect width="25" height="25" rx="12.5" fill="#E9706F" fill-opacity="0.2"/>
<path fill-rule="evenodd" clip-rule="evenodd" d="M15.8332 9.58325V15.4166C15.8332 16.107 15.2735 16.6666 14.5832 16.6666H14.1665C13.4761 16.6666 12.9165 16.107 12.9165 15.4166V9.58325C12.9165 8.89289 13.4761 8.33325 14.1665 8.33325H14.5832C15.2735 8.33325 15.8332 8.8929 15.8332 9.58325Z" fill="#E9706F"/>
<path fill-rule="evenodd" clip-rule="evenodd" d="M10.8332 8.33325C11.5235 8.33325 12.0832 8.8929 12.0832 9.58325V15.4166C12.0832 16.107 11.5235 16.6666 10.8332 16.6666H10.4165C9.72615 16.6666 9.1665 16.107 9.1665 15.4166V9.58325C9.1665 8.89289 9.72615 8.33325 10.4165 8.33325H10.8332Z" fill="#E9706F"/>
</svg>
