<svg width="7" height="9" viewBox="0 0 7 9" fill="none" xmlns="http://www.w3.org/2000/svg">
<path fill-rule="evenodd" clip-rule="evenodd" d="M6.66667 1.25V7.08333C6.66667 7.77371 6.10704 8.33333 5.41667 8.33333H5C4.30963 8.33333 3.75 7.77371 3.75 7.08333V1.25C3.75 0.559642 4.30963 0 5 0H5.41667C6.10704 0 6.66667 0.559646 6.66667 1.25Z" fill="#E9706F"/>
<path fill-rule="evenodd" clip-rule="evenodd" d="M1.66667 0C2.35702 0 2.91667 0.559646 2.91667 1.25V7.08333C2.91667 7.77371 2.35702 8.33333 1.66667 8.33333H1.25C0.559646 8.33333 0 7.77371 0 7.08333V1.25C0 0.559642 0.559646 0 1.25 0H1.66667Z" fill="#E9706F"/>
</svg>
