<svg width="15" height="12" viewBox="0 0 15 12" fill="none" xmlns="http://www.w3.org/2000/svg">
<path d="M14.707 3.7207C14.8242 3.63281 15 3.7207 15 3.86719V9.84375C15 10.6348 14.3555 11.25 13.5938 11.25H1.40625C0.615234 11.25 0 10.6348 0 9.84375V3.86719C0 3.7207 0.146484 3.63281 0.263672 3.7207C0.9375 4.24805 1.78711 4.89258 4.77539 7.06055C5.39062 7.5 6.44531 8.4668 7.5 8.4668C8.52539 8.4668 9.60938 7.5 10.1953 7.06055C13.1836 4.89258 14.0332 4.24805 14.707 3.7207ZM7.5 7.5C6.79688 7.5293 5.83008 6.65039 5.33203 6.29883C1.43555 3.48633 1.14258 3.22266 0.263672 2.51953C0.0878906 2.40234 0 2.19727 0 1.96289V1.40625C0 0.644531 0.615234 0 1.40625 0H13.5938C14.3555 0 15 0.644531 15 1.40625V1.96289C15 2.19727 14.8828 2.40234 14.707 2.51953C13.8281 3.22266 13.5352 3.48633 9.63867 6.29883C9.14062 6.65039 8.17383 7.5293 7.5 7.5Z" fill="white"/>
</svg>
