<svg width="14" height="18" viewBox="0 0 14 18" fill="none" xmlns="http://www.w3.org/2000/svg">
<path d="M7 12.2684C8.93025 12.2684 10.5 10.6986 10.5 8.76838V3.51838C10.5 1.5785 8.93813 0 7.01837 0C6.95677 0.00037625 6.89544 0.00770873 6.8355 0.021875C5.93714 0.0654325 5.08981 0.45269 4.46896 1.10352C3.8481 1.75433 3.50119 2.61892 3.5 3.51838V8.76838C3.5 10.6986 5.06975 12.2684 7 12.2684Z" fill="#950A21"/>
<path d="M6.125 15.7079V17.5183H7.875V15.7079C11.3216 15.2748 14 12.3322 14 8.76831H12.25C12.25 11.6637 9.89538 14.0183 7 14.0183C4.10462 14.0183 1.75 11.6637 1.75 8.76831H0C0 12.3313 2.67838 15.2748 6.125 15.7079Z" fill="#950A21"/>
</svg>
