<svg width="25" height="25" viewBox="0 0 25 25" fill="none" xmlns="http://www.w3.org/2000/svg">
<g clip-path="url(#clip0_1111_1121)">
<path d="M23.4375 10.1562H19.5312C19.324 10.1562 19.1253 10.2386 18.9788 10.3851C18.8323 10.5316 18.75 10.7303 18.75 10.9375V24.2188H21.875C22.4966 24.2188 23.0927 23.9718 23.5323 23.5323C23.9718 23.0927 24.2188 22.4966 24.2188 21.875V10.9375C24.2188 10.7303 24.1364 10.5316 23.9899 10.3851C23.8434 10.2386 23.6447 10.1562 23.4375 10.1562Z" fill="#6CAFFF"/>
<path d="M19.5312 10.1562C19.324 10.1562 19.1253 10.2386 18.9788 10.3851C18.8323 10.5316 18.75 10.7303 18.75 10.9375V24.2188H21.875V10.1562H19.5312Z" fill="#4A8FD3"/>
<path d="M17.9688 0.78125H3.125C2.5034 0.78125 1.90726 1.02818 1.46772 1.46772C1.02818 1.90726 0.78125 2.5034 0.78125 3.125V21.875C0.78125 22.4966 1.02818 23.0927 1.46772 23.5323C1.90726 23.9718 2.5034 24.2188 3.125 24.2188H20.3125V3.125C20.3125 2.5034 20.0656 1.90726 19.626 1.46772C19.1865 1.02818 18.5904 0.78125 17.9688 0.78125Z" fill="#F5EEEC"/>
<path d="M2.34375 23.4375V4.6875C2.34375 4.0659 2.59068 3.46976 3.03022 3.03022C3.46976 2.59068 4.0659 2.34375 4.6875 2.34375H19.5312C19.7593 2.34732 19.9857 2.38416 20.2031 2.45313C20.0591 1.97176 19.7642 1.54942 19.3619 1.2484C18.9596 0.94738 18.4712 0.783612 17.9688 0.78125H3.125C2.5034 0.78125 1.90726 1.02818 1.46772 1.46772C1.02818 1.90726 0.78125 2.5034 0.78125 3.125V21.875C0.783612 22.3774 0.94738 22.8658 1.2484 23.2681C1.54942 23.6704 1.97176 23.9653 2.45313 24.1094C2.38416 23.8919 2.34732 23.6656 2.34375 23.4375Z" fill="#E0DEDE"/>
<path d="M16.4062 3.90625H4.6875C4.25603 3.90625 3.90625 4.25603 3.90625 4.6875V9.375C3.90625 9.80647 4.25603 10.1562 4.6875 10.1562H16.4062C16.8377 10.1562 17.1875 9.80647 17.1875 9.375V4.6875C17.1875 4.25603 16.8377 3.90625 16.4062 3.90625Z" fill="#DC72A9"/>
<path d="M5.46875 6.25C5.46875 6.0428 5.55106 5.84409 5.69757 5.69757C5.84409 5.55106 6.0428 5.46875 6.25 5.46875H17.1875V4.6875C17.1875 4.4803 17.1052 4.28159 16.9587 4.13507C16.8122 3.98856 16.6135 3.90625 16.4062 3.90625H4.6875C4.4803 3.90625 4.28159 3.98856 4.13507 4.13507C3.98856 4.28159 3.90625 4.4803 3.90625 4.6875V9.375C3.90625 9.5822 3.98856 9.78091 4.13507 9.92743C4.28159 10.0739 4.4803 10.1562 4.6875 10.1562H5.46875V6.25Z" fill="#C15291"/>
<path d="M4.29688 15.625H16.7969V17.1875H4.29688V15.625Z" fill="#FFC144"/>
<path d="M8.20312 12.1094H16.7969V13.6719H8.20312V12.1094Z" fill="#FFC144"/>
<path d="M4.29688 12.1094H6.25V13.6719H4.29688V12.1094Z" fill="#FFC144"/>
<path d="M4.29688 19.1406H16.7969V20.7031H4.29688V19.1406Z" fill="#FFC144"/>
</g>
<defs>
<clipPath id="clip0_1111_1121">
<rect width="25" height="25" fill="white"/>
</clipPath>
</defs>
</svg>
