<svg width="15" height="15" viewBox="0 0 15 15" fill="none" xmlns="http://www.w3.org/2000/svg">
<g clip-path="url(#clip0_370_795)">
<path d="M5.625 8.125C7.69606 8.125 9.375 6.44606 9.375 4.375C9.375 2.30393 7.69606 0.625 5.625 0.625C3.55393 0.625 1.875 2.30393 1.875 4.375C1.875 6.44606 3.55393 8.125 5.625 8.125Z" fill="#121212"/>
<path d="M4.01786 8.75C1.79886 8.75 0 10.5489 0 12.7679C0 13.6554 0.719544 14.375 1.60714 14.375H9.64288C10.5304 14.375 11.25 13.6554 11.25 12.7679C11.25 10.5489 9.45112 8.75 7.23212 8.75H4.01786Z" fill="#121212"/>
<path d="M9.89845 6.97219C9.78601 7.15681 9.8697 7.40494 10.0823 7.44425C10.2651 7.47813 10.4542 7.5 10.6251 7.5C12.3509 7.5 13.7501 6.10089 13.7501 4.375C13.7501 2.64911 12.3509 1.25 10.6251 1.25C10.4542 1.25 10.2651 1.27191 10.0823 1.30575C9.8697 1.34508 9.78601 1.5932 9.89845 1.77779C10.3595 2.53476 10.6251 3.42387 10.6251 4.375C10.6251 5.32613 10.3595 6.21524 9.89845 6.97219Z" fill="#121212"/>
<path d="M12.2857 13.8556C12.19 14.0878 12.3457 14.375 12.5967 14.375H13.3929C14.2805 14.375 15 13.6554 15 12.7679C15 10.5489 13.2012 8.75 10.9822 8.75C10.8652 8.75294 10.8116 8.90106 10.8957 8.98244C11.885 9.94012 12.5 11.2822 12.5 12.7679C12.5 13.153 12.4238 13.5204 12.2857 13.8556Z" fill="#121212"/>
</g>
<defs>
<clipPath id="clip0_370_795">
<rect width="15" height="15" fill="white"/>
</clipPath>
</defs>
</svg>
