<svg width="13" height="16" viewBox="0 0 13 16" fill="none" xmlns="http://www.w3.org/2000/svg">
<path d="M3.80859 14.8828C0 11.1035 0 4.92188 3.80859 1.14258C3.98438 0.966797 4.21875 0.9375 4.42383 1.05469L6.32812 2.25586C6.47461 2.34375 6.5625 2.49023 6.5625 2.66602C6.5625 2.72461 6.5625 2.8125 6.5332 2.87109L5.56641 5.24414C5.50781 5.41992 5.33203 5.53711 5.09766 5.53711H5.06836L3.42773 5.39062C2.8125 7.08984 2.8125 8.96484 3.42773 10.6348L5.06836 10.4883H5.09766C5.33203 10.4883 5.50781 10.6055 5.56641 10.7812L6.5332 13.1543C6.5625 13.2129 6.5625 13.3008 6.5625 13.3594C6.5625 13.5352 6.47461 13.6816 6.32812 13.7695L4.42383 14.9707C4.33594 15.0293 4.24805 15.0293 4.16016 15.0293C4.01367 15.0293 3.89648 15 3.80859 14.8828ZM8.20312 2.8418C8.52539 3.42773 8.52539 4.16016 8.20312 4.74609C8.08594 4.95117 7.82227 4.98047 7.64648 4.83398L7.4707 4.6582C7.35352 4.54102 7.32422 4.36523 7.41211 4.21875C7.4707 4.10156 7.5 3.95508 7.5 3.80859C7.5 3.63281 7.4707 3.48633 7.41211 3.36914C7.32422 3.22266 7.35352 3.04688 7.4707 2.92969L7.64648 2.75391C7.82227 2.60742 8.08594 2.63672 8.20312 2.8418ZM10.8691 0.175781C12.6562 2.25586 12.6562 5.33203 10.8691 7.41211C10.752 7.58789 10.5176 7.58789 10.3711 7.44141L10.1953 7.29492C10.0781 7.14844 10.0488 6.94336 10.166 6.79688C11.6309 5.06836 11.6309 2.51953 10.166 0.791016C10.0488 0.644531 10.0781 0.439453 10.1953 0.292969L10.3711 0.146484C10.5176 0 10.752 0 10.8691 0.175781ZM9.52148 1.49414C10.5762 2.8418 10.6055 4.74609 9.52148 6.09375C9.4043 6.26953 9.16992 6.29883 9.02344 6.15234L8.84766 5.97656C8.70117 5.85938 8.70117 5.6543 8.78906 5.50781C9.58008 4.51172 9.58008 3.07617 8.78906 2.08008C8.70117 1.93359 8.70117 1.72852 8.84766 1.61133L9.02344 1.43555C9.16992 1.28906 9.4043 1.31836 9.52148 1.49414Z" fill="white"/>
</svg>
