<svg width="16" height="16" viewBox="0 0 16 16" fill="none" xmlns="http://www.w3.org/2000/svg">
<path d="M8.61158 2.0681C8.50592 1.82439 8.26558 1.66667 7.99992 1.66667C7.73432 1.66667 7.49398 1.82439 7.38832 2.0681L5.83969 5.63915L1.9388 5.99843C1.67317 6.0229 1.44769 6.20335 1.36562 6.45717C1.28354 6.71101 1.36067 6.98927 1.56169 7.16467L4.5017 9.72947L3.64161 13.5191C3.58272 13.7786 3.68376 14.0482 3.89866 14.2051C4.11356 14.362 4.40116 14.3761 4.63036 14.2409L7.99992 12.2541L11.3695 14.2409C11.5987 14.3761 11.8863 14.362 12.1013 14.2051C12.3161 14.0482 12.4172 13.7786 12.3583 13.5191L11.4982 9.72947L14.4382 7.16467C14.6393 6.98927 14.7163 6.71101 14.6343 6.45717C14.5522 6.20335 14.3267 6.0229 14.0611 5.99843L10.1602 5.63915L8.61158 2.0681Z" fill="#121212"/>
</svg>
