<svg width="20" height="20" viewBox="0 0 20 20" fill="none" xmlns="http://www.w3.org/2000/svg">
<path d="M10.7645 2.58528C10.6325 2.28064 10.332 2.0835 9.99996 2.0835C9.66796 2.0835 9.36754 2.28064 9.23546 2.58528L7.29968 7.04909L2.42357 7.4982C2.09153 7.52878 1.80968 7.75435 1.70708 8.07162C1.60449 8.38891 1.7009 8.73675 1.95218 8.956L5.62719 12.162L4.55208 16.8991C4.47846 17.2234 4.60476 17.5604 4.87338 17.7566C5.14201 17.9527 5.50152 17.9702 5.78801 17.8013L9.99996 15.3177L14.212 17.8013C14.4985 17.9702 14.858 17.9527 15.1266 17.7566C15.3952 17.5604 15.5215 17.2234 15.4479 16.8991L14.3728 12.162L18.0478 8.956C18.2991 8.73675 18.3955 8.38891 18.2929 8.07162C18.1903 7.75435 17.9085 7.52878 17.5765 7.4982L12.7003 7.04909L10.7645 2.58528Z" fill="#F4B00C"/>
</svg>
