<svg width="25" height="25" viewBox="0 0 25 25" fill="none" xmlns="http://www.w3.org/2000/svg">
<path d="M20.3125 3.125H4.6875C3.82456 3.125 3.125 3.82456 3.125 4.6875V22.6562C3.125 23.5192 3.82456 24.2188 4.6875 24.2188H20.3125C21.1754 24.2188 21.875 23.5192 21.875 22.6562V4.6875C21.875 3.82456 21.1754 3.125 20.3125 3.125Z" fill="#FFC144"/>
<path d="M4.6875 21.0938V3.125C4.2731 3.125 3.87567 3.28962 3.58265 3.58265C3.28962 3.87567 3.125 4.2731 3.125 4.6875V22.6562C3.125 23.0707 3.28962 23.4681 3.58265 23.7611C3.87567 24.0541 4.2731 24.2188 4.6875 24.2188H20.3125C20.7269 24.2188 21.1243 24.0541 21.4174 23.7611C21.7104 23.4681 21.875 23.0707 21.875 22.6562H6.25C5.8356 22.6562 5.43817 22.4916 5.14515 22.1986C4.85212 21.9056 4.6875 21.5082 4.6875 21.0938Z" fill="#D3922A"/>
<path d="M10.9375 9.375H17.9688V10.9375H10.9375V9.375Z" fill="#F5EEEC"/>
<path d="M7.03125 9.375H9.375V10.9375H7.03125V9.375Z" fill="#F5EEEC"/>
<path d="M7.03125 12.7578H17.9688V14.3203H7.03125V12.7578Z" fill="#F5EEEC"/>
<path d="M7.03125 16.1484H17.9688V17.7109H7.03125V16.1484Z" fill="#F5EEEC"/>
<path d="M7.03125 19.5312H17.9688V21.0938H7.03125V19.5312Z" fill="#F5EEEC"/>
<path d="M5.46875 3.125V6.25C5.46875 6.6644 5.63337 7.06183 5.9264 7.35485C6.21942 7.64788 6.61685 7.8125 7.03125 7.8125H17.9688C18.3832 7.8125 18.7806 7.64788 19.0736 7.35485C19.3666 7.06183 19.5312 6.6644 19.5312 6.25V3.125H5.46875Z" fill="#D3922A"/>
<path d="M16.4062 0.78125H8.59375C7.73081 0.78125 7.03125 1.48081 7.03125 2.34375V4.6875C7.03125 5.55045 7.73081 6.25 8.59375 6.25H16.4062C17.2692 6.25 17.9688 5.55045 17.9688 4.6875V2.34375C17.9688 1.48081 17.2692 0.78125 16.4062 0.78125Z" fill="#8481E2"/>
<path d="M10.1562 2.34375H17.9688C17.9688 1.92935 17.8041 1.53192 17.5111 1.2389C17.2181 0.94587 16.8207 0.78125 16.4062 0.78125H8.59375C8.17935 0.78125 7.78192 0.94587 7.4889 1.2389C7.19587 1.53192 7.03125 1.92935 7.03125 2.34375V4.6875C7.03125 5.1019 7.19587 5.49933 7.4889 5.79235C7.78192 6.08538 8.17935 6.25 8.59375 6.25V3.90625C8.59375 3.49185 8.75837 3.09442 9.0514 2.8014C9.34442 2.50837 9.74185 2.34375 10.1562 2.34375Z" fill="#5A5AA8"/>
<path d="M10.1562 2.73438H14.8438V4.29688H10.1562V2.73438Z" fill="#F5EEEC"/>
</svg>
