<svg width="45" height="45" viewBox="0 0 45 45" fill="none" xmlns="http://www.w3.org/2000/svg">
<rect width="45" height="45" rx="3" fill="white"/>
<g clip-path="url(#clip0_3528_169)">
<path d="M33.4532 16.269C32.0265 16.269 30.7101 15.7964 29.6529 14.999C28.4405 14.085 27.5694 12.7441 27.2618 11.1987C27.1857 10.8169 27.1446 10.4229 27.1407 10.019H23.0651V21.1558L23.0602 27.2559C23.0602 28.8867 21.9982 30.2695 20.526 30.7559C20.0987 30.897 19.6373 30.9639 19.1569 30.9375C18.5436 30.9038 17.9689 30.7188 17.4694 30.4199C16.4064 29.7842 15.6857 28.6309 15.6661 27.3115C15.6354 25.2495 17.3024 23.5684 19.3629 23.5684C19.7696 23.5684 20.1603 23.6348 20.526 23.7554V20.7114V19.6172C20.1402 19.5601 19.7477 19.5303 19.3507 19.5303C17.0953 19.5303 14.986 20.4678 13.4781 22.1567C12.3385 23.4331 11.6549 25.0615 11.5494 26.769C11.4112 29.0122 12.232 31.1445 13.8238 32.7178C14.0577 32.9487 14.3033 33.1631 14.5602 33.3608C15.9249 34.4111 17.5934 34.9805 19.3507 34.9805C19.7477 34.9805 20.1402 34.9512 20.526 34.894C22.1676 34.6509 23.6822 33.8994 24.8776 32.7178C26.3463 31.2661 27.1578 29.3389 27.1666 27.2876L27.1456 18.1782C27.8463 18.7188 28.6124 19.166 29.4347 19.5132C30.7135 20.0527 32.0694 20.3262 33.465 20.3257V17.3662V16.2681C33.4659 16.269 33.4542 16.269 33.4532 16.269Z" fill="#121212"/>
</g>
<defs>
<clipPath id="clip0_3528_169">
<rect width="25" height="25" fill="white" transform="translate(10 10)"/>
</clipPath>
</defs>
</svg>
