<svg width="14" height="14" viewBox="0 0 14 14" fill="none" xmlns="http://www.w3.org/2000/svg">
<path d="M2.33325 4.2V12.1333C2.33325 12.6488 2.75115 13.0667 3.26659 13.0667H10.7333C11.2487 13.0667 11.6666 12.6488 11.6666 12.1333V4.2H2.33325ZM5.13325 11.2C5.13325 11.4576 4.92419 11.6667 4.66659 11.6667C4.40899 11.6667 4.19992 11.4576 4.19992 11.2V6.06666C4.19992 5.80906 4.40899 5.6 4.66659 5.6C4.92419 5.6 5.13325 5.80906 5.13325 6.06666V11.2ZM7.46659 11.2C7.46659 11.4576 7.25752 11.6667 6.99992 11.6667C6.74232 11.6667 6.53325 11.4576 6.53325 11.2V6.06666C6.53325 5.80906 6.74232 5.6 6.99992 5.6C7.25752 5.6 7.46659 5.80906 7.46659 6.06666V11.2ZM9.79992 11.2C9.79992 11.4576 9.59085 11.6667 9.33325 11.6667C9.07565 11.6667 8.86659 11.4576 8.86659 11.2V6.06666C8.86659 5.80906 9.07565 5.6 9.33325 5.6C9.59085 5.6 9.79992 5.80906 9.79992 6.06666V11.2Z" fill="#121212"/>
<path d="M11.6666 1.86667H8.86663V1.63333C8.86663 1.2467 8.55303 0.933334 8.16663 0.933334H5.8333C5.4469 0.933334 5.1333 1.2467 5.1333 1.63333V1.86667H2.3333C1.9469 1.86667 1.6333 2.18003 1.6333 2.56667V3.26667H12.3666V2.56667C12.3666 2.18003 12.053 1.86667 11.6666 1.86667Z" fill="#121212"/>
</svg>
