<svg width="45" height="45" viewBox="0 0 45 45" fill="none" xmlns="http://www.w3.org/2000/svg">
<rect width="45" height="45" rx="3" fill="white"/>
<path d="M33.7236 16.642C33.4535 15.6379 32.6619 14.8464 31.6579 14.576C29.8239 14.0742 22.4875 14.0742 22.4875 14.0742C22.4875 14.0742 15.1514 14.0742 13.3174 14.557C12.3327 14.8271 11.5218 15.6381 11.2517 16.642C10.769 18.4759 10.769 22.2792 10.769 22.2792C10.769 22.2792 10.769 26.1017 11.2517 27.9164C11.5221 28.9204 12.3134 29.7119 13.3175 29.9822C15.1707 30.4842 22.4878 30.4842 22.4878 30.4842C22.4878 30.4842 29.8239 30.4842 31.6579 30.0014C32.662 29.7312 33.4535 28.9397 33.7239 27.9357C34.2064 26.1017 34.2064 22.2985 34.2064 22.2985C34.2064 22.2985 34.2257 18.4759 33.7236 16.642ZM20.1518 25.7928V18.7656L26.2523 22.2792L20.1518 25.7928Z" fill="#121212"/>
</svg>
