<svg width="1620" height="167" viewBox="0 0 1620 167" fill="none" xmlns="http://www.w3.org/2000/svg">
<path d="M1590.76 45.763C1591.76 44.146 1592.86 42.5289 1593.76 40.9119C1595.56 37.7729 1597.06 34.5388 1598.96 31.495C1601.76 26.739 1604.76 21.983 1607.76 17.3221C1608.86 15.6099 1610.46 14.088 1611.76 12.4709C1614.16 9.14173 1616.56 5.81252 1619.06 2.57844C1619.26 2.29308 1619.46 2.00772 1619.56 1.72236C1620.16 0.485793 1619.86 -0.0849288 1618.36 0.0101915C1617.16 0.105312 1615.96 0.295552 1614.76 0.485793C1613.76 0.676033 1612.86 0.771153 1611.86 0.866273C1607.36 1.24675 1602.76 1.43699 1598.26 1.81748C1596.46 2.00772 1594.76 2.29308 1593.06 2.57844C1589.06 3.05404 1584.96 3.43452 1580.96 4.10036C1577.26 4.67108 1573.56 5.14668 1569.96 6.09788C1561.96 8.19053 1553.96 10.2832 1545.76 11.71C1540.56 12.6612 1535.36 13.8026 1530.16 14.8489C1523.46 16.1806 1516.76 17.5123 1510.06 18.9391C1508.76 19.2245 1507.56 19.605 1506.36 19.8903C1504.76 20.2708 1503.06 20.6513 1501.46 21.0318C1500.76 21.222 1499.96 21.4122 1499.26 21.6025C1497.76 22.1732 1497.56 23.2195 1498.86 24.1707C1500.16 25.1219 1501.56 25.8829 1502.86 26.9292C1506.26 29.4975 1509.76 31.8755 1513.36 34.2535C1516.76 36.5364 1520.46 38.5339 1523.06 41.8631C1524.46 43.6704 1526.46 45.1923 1528.26 46.7142C1529.36 47.6654 1529.36 48.7117 1528.76 49.8532C1527.36 52.897 1525.86 55.8458 1524.56 58.8896C1523.56 61.1725 1522.86 63.6456 1522.06 66.0236C1521.06 68.9723 1520.06 71.9211 1519.06 74.8698C1518.66 76.2015 1519.16 77.1527 1520.56 77.1527C1521.06 77.1527 1521.56 76.9624 1522.06 76.6771C1524.16 75.5356 1526.26 74.2039 1528.46 73.2527C1534.16 70.8747 1539.96 68.687 1545.76 66.4041C1546.56 66.1187 1547.06 66.309 1547.56 66.8797C1547.76 67.1651 1548.06 67.5455 1548.26 67.8309C1551.36 72.3967 1555.06 76.582 1558.96 80.4819C1560.66 82.194 1562.06 84.1916 1563.66 86.094C1564.56 87.1403 1565.46 88.1866 1566.46 89.1378C1567.56 90.089 1568.16 89.9939 1568.76 88.6622C1570.16 85.8086 1571.36 82.8599 1572.76 80.0063C1574.16 77.1527 1575.86 74.3942 1577.36 71.5406C1580.06 66.2139 1582.96 60.6969 1585.86 55.1799C1587.56 52.0409 1589.16 48.9971 1590.86 45.8581C1590.86 45.8581 1590.76 45.8581 1590.76 45.763ZM1614.16 5.33692C1614.26 5.52716 1614.36 5.62228 1614.46 5.7174C1612.56 8.38077 1610.86 11.2344 1608.66 13.6124C1604.46 18.2733 1601.66 23.6 1598.46 28.7365C1596.86 31.3047 1595.66 34.2535 1594.26 36.9168C1592.46 40.1509 1590.46 43.1948 1588.76 46.4289C1585.96 51.4702 1583.36 56.6067 1580.66 61.6481C1579.06 64.6919 1577.56 67.7358 1575.76 70.5894C1573.66 73.8235 1571.86 77.0576 1570.26 80.577C1569.36 82.5745 1568.26 84.4769 1567.26 86.4745C1566.96 86.3793 1566.76 86.2842 1566.66 86.2842C1564.36 83.5257 1562.06 80.6721 1559.66 77.9136C1558.76 76.7722 1557.56 75.9161 1556.66 74.7747C1552.46 69.4479 1548.16 64.2163 1544.06 58.8896C1542.66 57.0823 1541.46 55.1799 1540.16 53.1824C1540.76 52.8019 1541.16 52.4214 1541.56 52.1361C1545.06 49.7581 1548.56 47.3801 1552.06 45.0972C1554.96 43.1948 1557.86 41.4826 1560.76 39.6753C1561.96 38.9144 1563.26 38.3436 1564.46 37.5827C1567.26 35.8705 1569.96 33.9681 1572.76 32.2559C1575.86 30.3535 1579.16 28.6414 1582.26 26.6439C1585.86 24.2658 1589.46 22.0781 1593.36 20.1757C1594.86 19.4147 1596.26 18.1782 1597.56 17.2269C1598.46 16.5611 1599.26 15.705 1600.16 15.1343C1602.16 13.8026 1604.26 12.5661 1606.26 11.2344C1608.06 9.99781 1609.86 8.66613 1611.66 7.42957C1612.36 6.66861 1613.26 6.00276 1614.16 5.33692ZM1501.46 23.1244C1504.06 22.4586 1506.46 21.6976 1508.86 21.1269C1513.36 19.9854 1517.96 18.9391 1522.56 17.8928C1526.06 17.1318 1529.66 16.5611 1533.16 15.8953C1538.06 14.9441 1543.06 13.8977 1547.96 12.9465C1552.26 12.0905 1556.46 11.2344 1560.66 10.1881C1564.76 9.23685 1568.76 7.90517 1572.86 6.95397C1575.36 6.38325 1577.96 6.09788 1580.46 5.7174C1583.36 5.33692 1586.26 5.2418 1589.16 4.86132C1594.36 4.2906 1599.56 3.52964 1604.76 2.95892C1606.66 2.8638 1608.46 2.95892 1610.36 2.8638C1610.36 2.95892 1610.46 3.14916 1610.46 3.24428C1609.96 3.52964 1609.56 3.91012 1608.96 4.19548C1607.66 4.86132 1606.36 5.52716 1605.06 6.193C1600.96 8.47589 1596.86 10.7588 1592.76 13.0417C1591.66 13.6124 1590.46 14.088 1589.26 14.6587C1586.06 16.2757 1582.86 17.7977 1579.66 19.4147C1576.66 20.9366 1573.66 22.4586 1570.66 23.8854C1565.56 26.2634 1560.46 28.7365 1555.76 31.8755C1552.86 33.873 1549.76 35.6803 1546.66 37.4876C1543.56 39.39 1540.46 41.1021 1537.26 43.0045C1535.36 44.146 1533.46 45.2874 1531.56 46.4289C1530.96 46.8093 1530.46 46.7142 1529.96 46.2386C1528.26 44.6216 1526.56 43.0996 1524.86 41.4826C1522.36 39.1997 1520.26 36.6315 1517.16 34.9193C1514.96 33.7779 1513.06 32.2559 1511.06 30.8291C1507.86 28.5463 1504.76 26.1682 1501.66 23.7902C1501.66 23.6 1501.66 23.5049 1501.46 23.1244ZM1608.86 6.47837C1608.96 6.57349 1608.96 6.76373 1609.06 6.85885C1607.56 7.81005 1606.06 8.66613 1604.66 9.71245C1601.86 11.6149 1598.96 13.5173 1596.36 15.6099C1594.96 16.7513 1593.66 17.7025 1592.16 18.5586C1589.66 19.8903 1587.06 21.3171 1584.56 22.7439C1582.56 23.9805 1580.66 25.3122 1578.66 26.5487C1574.96 28.8316 1571.16 31.0194 1567.46 33.2071C1565.06 34.6339 1562.76 36.1559 1560.46 37.4876C1558.36 38.7241 1556.16 39.6753 1554.16 41.007C1549.36 44.0508 1544.66 47.2849 1539.86 50.4239C1539.26 50.8044 1538.66 51.28 1537.96 51.4702C1536.66 51.8507 1535.66 52.5165 1535.76 54.0385C1535.76 54.3238 1535.46 54.6092 1535.26 54.8946C1533.76 56.797 1532.36 58.6042 1530.86 60.5066C1528.66 63.2651 1526.46 65.9285 1524.26 68.5919C1524.06 68.8772 1523.76 69.0675 1523.56 69.3528C1524.16 66.4041 1524.86 63.6456 1525.96 60.8871C1526.86 58.5091 1528.16 56.3214 1529.06 53.9434C1530.26 50.8044 1532.36 48.5215 1535.46 46.9045C1536.06 46.6191 1536.66 46.3337 1537.26 45.9533C1542.76 42.5289 1548.16 39.1046 1553.66 35.7754C1559.86 31.9706 1566.06 28.2609 1572.66 25.217C1578.16 22.7439 1583.36 19.8903 1588.66 17.1318C1593.66 14.5636 1598.66 11.9953 1603.76 9.42709C1605.36 8.38077 1607.06 7.42957 1608.86 6.47837ZM1545.06 64.3114C1538.06 67.0699 1531.46 69.7333 1524.66 72.3967C1528.16 66.0236 1533.06 61.0774 1537.46 55.4653C1540.06 58.414 1542.46 61.1725 1545.06 64.3114Z" fill="#121212"/>
<path d="M1553.16 55.3701C1552.66 55.6555 1552.16 55.8457 1551.86 56.1311C1550.96 56.8921 1550.16 57.7482 1549.26 58.6043C1548.76 59.0799 1548.56 59.5556 1548.96 60.1263C1549.46 60.697 1550.06 60.5068 1550.56 60.0312C1551.56 59.1751 1552.56 58.3189 1553.56 57.4628C1554.26 56.797 1553.76 56.1311 1553.16 55.3701Z" fill="#121212"/>
<path d="M1546.26 56.4169C1546.36 56.7973 1546.36 57.2729 1546.56 57.5583C1546.66 57.7485 1547.46 57.6534 1547.76 57.368C1549.06 56.2267 1550.26 55.0853 1551.46 53.8488C1551.66 53.6586 1551.56 53.0879 1551.46 52.8025C1551.36 52.6123 1550.86 52.6123 1550.56 52.6123C1550.36 52.6123 1550.16 52.7074 1550.06 52.8025C1548.86 53.9439 1547.66 55.0853 1546.26 56.4169Z" fill="#121212"/>
<path d="M1550.46 61.6484C1551.06 62.6947 1551.66 62.98 1552.56 62.3142C1553.16 61.8386 1553.86 61.3631 1554.46 60.8875C1555.06 60.4119 1554.96 59.8412 1554.56 59.3656C1554.16 58.795 1553.66 58.9852 1553.16 59.2705C1552.86 59.4608 1552.46 59.7461 1552.26 60.0314C1551.66 60.507 1551.16 61.0777 1550.46 61.6484Z" fill="#121212"/>
<path d="M1593.46 30.8291C1594.16 31.1144 1594.96 30.734 1594.86 29.9731C1594.76 29.022 1594.36 27.9758 1594.06 27.0246C1593.96 26.9295 1593.26 26.7393 1593.06 26.9295C1592.36 27.5953 1592.56 30.0682 1593.36 30.6389C1593.36 30.734 1593.46 30.8291 1593.46 30.8291Z" fill="#121212"/>
<path d="M1596.76 24.4561C1595.56 25.0268 1595.56 25.0268 1595.96 28.5463C1596.76 28.9268 1597.46 28.8316 1597.36 27.7853C1597.26 26.739 1596.96 25.5975 1596.76 24.4561Z" fill="#121212"/>
<path d="M1552.66 65.6437C1553.56 66.2144 1554.76 65.9291 1555.06 65.2632C1555.16 64.9778 1555.06 64.3119 1554.76 64.1216C1554.26 63.646 1552.96 63.8363 1552.66 64.5021C1552.56 64.8827 1552.66 65.4534 1552.66 65.6437Z" fill="#121212"/>
<path d="M1517.16 22.7441C1514.66 22.7441 1512.26 23.41 1510.06 24.4564C1509.76 24.6466 1509.46 25.2173 1509.56 25.5027C1509.66 25.7881 1510.26 25.9783 1510.66 26.0734C1510.96 26.1686 1511.36 25.9783 1511.66 25.8832C1513.26 25.2173 1514.96 24.6466 1516.56 23.8856C1516.96 23.6954 1517.16 23.3149 1517.46 23.0295C1517.36 23.0295 1517.26 22.9344 1517.16 22.7441Z" fill="#121212"/>
<path d="M1578.56 8.0957C1578.36 8.0957 1577.86 8.0957 1577.46 8.28594C1576.26 8.95175 1575.16 9.8078 1573.96 10.5687C1573.46 10.8541 1573.06 11.1394 1573.36 11.8052C1573.76 12.4711 1574.36 12.4711 1574.96 12.0906C1576.26 11.3297 1577.56 10.6638 1578.76 9.8078C1579.46 9.42733 1579.46 8.6664 1578.56 8.0957Z" fill="#121212"/>
<path d="M1577.86 12.8516C1579.46 11.9955 1581.06 11.2345 1582.66 10.3784C1582.96 10.1882 1583.26 9.80767 1583.16 9.52231C1583.16 9.23694 1582.66 8.85646 1582.36 8.85646C1580.86 8.66622 1577.76 11.0443 1577.56 12.4711C1577.56 12.4711 1577.66 12.4711 1577.86 12.8516Z" fill="#121212"/>
<path d="M1588.46 9.42702C1587.66 8.28562 1586.86 8.38073 1586.06 8.66608C1585.56 8.95143 1584.96 9.14167 1584.56 9.52213C1584.26 9.80748 1584.26 10.2831 1584.06 10.5684C1584.56 10.7587 1585.06 11.1391 1585.46 10.9489C1586.36 10.6635 1587.26 9.99772 1588.46 9.42702Z" fill="#121212"/>
<path d="M1520.76 23.0296C1520.86 22.2686 1520.86 21.4125 1519.76 21.3174C1519.46 21.3174 1518.96 21.9832 1518.86 22.3637C1518.76 23.1247 1519.36 23.3149 1520.76 23.0296Z" fill="#121212"/>
<path d="M1522.56 20.8415C1522.86 21.6025 1522.96 22.0781 1523.26 22.3634C1523.46 22.5537 1523.96 22.3634 1524.36 22.3634C1524.26 21.7927 1524.36 21.222 1524.16 20.7464C1524.06 20.6513 1523.36 20.7464 1522.56 20.8415Z" fill="#121212"/>
<path d="M1538.86 62.1238C1538.56 62.0287 1538.36 61.9336 1538.16 61.9336C1536.96 62.2189 1535.76 62.5043 1534.66 62.8848C1534.36 62.9799 1534.26 63.4555 1534.16 63.7408C1534.56 63.9311 1534.96 64.3115 1535.26 64.3115C1536.36 64.1213 1537.36 63.9311 1538.36 63.5506C1538.66 63.4555 1538.96 63.1701 1539.06 62.8848C1539.16 62.6945 1538.96 62.4092 1538.86 62.1238Z" fill="#121212"/>
<path d="M1536.56 65.1676C1535.96 64.8823 1533.46 65.2627 1532.86 65.7383C1532.36 66.2139 1532.46 66.9749 1533.26 66.9749C1534.36 66.9749 1535.56 66.7846 1536.56 66.4993C1537.26 66.309 1537.16 65.5481 1536.56 65.1676Z" fill="#121212"/>
<g clip-path="url(#clip0_137_133)">
<path d="M900 166.4V163.4C902.6 163.4 905.3 163.3 907.9 163.3L908 166.3C905.4 166.3 902.7 166.4 900 166.4ZM893 166.3C890.3 166.2 887.6 166.1 885 166L885.2 163C887.8 163.1 890.5 163.3 893.2 163.3L893 166.3ZM915.1 165.9L914.9 162.9C917.5 162.7 920.2 162.5 922.8 162.3L923.1 165.3C920.4 165.6 917.7 165.8 915.1 165.9ZM877.9 165.5C875.2 165.3 872.5 165 869.9 164.7L870.2 161.7C872.8 162 875.5 162.3 878.1 162.5L877.9 165.5ZM930.1 164.6L929.8 161.6C932.4 161.3 935.1 161 937.7 160.6L938.1 163.6C935.4 164 932.7 164.3 930.1 164.6ZM862.9 163.8C860.2 163.4 857.6 163 855 162.5L855.5 159.5C858.1 160 860.7 160.4 863.4 160.8L862.9 163.8ZM945 162.5L944.5 159.5C947.1 159.1 949.7 158.6 952.3 158.1L952.9 161C950.3 161.6 947.6 162.1 945 162.5ZM848 161.2C845.4 160.7 842.8 160.1 840.1 159.5L840.8 156.6C843.4 157.2 846 157.8 848.6 158.3L848 161.2ZM959.8 159.8L959.2 156.9C961.8 156.4 964.4 155.8 967 155.2L967.7 158.1C965.1 158.6 962.4 159.2 959.8 159.8ZM833.4 157.7C830.8 157 828.2 156.3 825.7 155.5L826.6 152.6C829.1 153.4 831.7 154.1 834.3 154.8L833.4 157.7ZM162.6 156.7C161.7 156.7 160.8 156.7 159.8 156.7V153.7C162.5 153.7 165.1 153.7 167.8 153.7L167.9 156.7C166.2 156.7 164.4 156.7 162.6 156.7ZM152.8 156.6C150.2 156.5 147.5 156.4 144.8 156.2L145 153.2C147.7 153.4 150.3 153.5 153 153.6L152.8 156.6ZM175 156.5L174.9 153.5C177.5 153.4 180.2 153.2 182.8 153L183 156C180.3 156.2 177.6 156.3 175 156.5ZM974.5 156.3L973.8 153.4C976.4 152.8 979 152.1 981.5 151.4L982.3 154.3C979.7 155 977.1 155.7 974.5 156.3ZM137.8 155.7C135.2 155.5 132.5 155.2 129.8 154.9L130.1 151.9C132.7 152.2 135.4 152.4 138 152.7L137.8 155.7ZM190 155.4L189.7 152.4C192.3 152.1 195 151.8 197.6 151.5L198 154.5C195.3 154.8 192.6 155.1 190 155.4ZM1426.9 154.4C1424.3 154.3 1421.6 154.2 1418.8 154L1419 151C1421.7 151.2 1424.3 151.3 1426.9 151.4V154.4ZM1434 154.4L1433.9 151.4C1436.6 151.3 1439.2 151.2 1441.8 150.9L1442.1 153.9C1439.4 154.2 1436.7 154.3 1434 154.4ZM122.8 154.1C120.2 153.8 117.5 153.4 114.8 153L115.3 150C117.9 150.4 120.6 150.8 123.2 151.1L122.8 154.1ZM818.9 153.4C816.4 152.6 813.8 151.7 811.3 150.8L812.3 148C814.8 148.9 817.3 149.8 819.8 150.6L818.9 153.4ZM204.9 153.4L204.4 150.4C207 150 209.6 149.5 212.2 149L212.8 151.9C210.2 152.5 207.6 153 204.9 153.4ZM1411.8 153.3C1409.2 153 1406.5 152.6 1403.8 152.2L1404.3 149.2C1407 149.6 1409.6 150 1412.2 150.3L1411.8 153.3ZM1449.1 153L1448.6 150C1451.2 149.6 1453.8 149.1 1456.3 148.4L1457 151.3C1454.5 152.1 1451.8 152.6 1449.1 153ZM989.1 152.4L988.3 149.5C990.8 148.8 993.4 148 996 147.2L996.9 150.1C994.2 150.8 991.6 151.6 989.1 152.4ZM107.9 151.9C105.3 151.4 102.6 151 100 150.4L100.6 147.5C103.2 148 105.8 148.5 108.4 148.9L107.9 151.9ZM1396.9 151C1394.3 150.5 1391.7 150 1389 149.4L1389.7 146.5C1392.3 147.1 1395 147.6 1397.5 148.1L1396.9 151ZM219.8 150.6L219.1 147.7C221.7 147.1 224.3 146.5 226.8 145.8L227.6 148.7C225 149.4 222.4 150 219.8 150.6ZM1463.9 149.5L1463 146.7C1465.5 145.9 1468 144.9 1470.3 143.9L1471.5 146.6C1469 147.6 1466.5 148.6 1463.9 149.5ZM93.1 149C90.5 148.5 87.9 147.9 85.3 147.2L86 144.3C88.6 144.9 91.2 145.5 93.8 146L93.1 149ZM804.7 148.4C802.2 147.5 799.7 146.5 797.2 145.4L798.3 142.6C800.8 143.6 803.3 144.6 805.7 145.6L804.7 148.4ZM1003.5 147.9L1002.6 145C1005.1 144.2 1007.7 143.3 1010.2 142.5L1011.2 145.3C1008.6 146.2 1006.1 147.1 1003.5 147.9ZM1382.1 147.7C1379.6 147.1 1377 146.4 1374.3 145.6L1375.1 142.7C1377.7 143.4 1380.3 144.1 1382.8 144.7L1382.1 147.7ZM234.4 146.8L233.6 143.9C236.1 143.2 238.7 142.4 241.2 141.6L242.1 144.5C239.5 145.3 236.9 146.1 234.4 146.8ZM78.5 145.6C75.9 145 73.3 144.3 70.7 143.6L71.5 140.7C74.1 141.4 76.7 142.1 79.2 142.7L78.5 145.6ZM1367.6 143.7C1365.1 143 1362.5 142.2 1359.9 141.3L1360.8 138.4C1363.4 139.2 1365.9 140 1368.4 140.7L1367.6 143.7ZM1477.9 143.3L1476.4 140.7C1478.7 139.4 1480.9 138 1483.1 136.6L1484.8 139.1C1482.6 140.6 1480.2 142 1477.9 143.3ZM1017.8 143.1L1016.8 140.3C1019.3 139.4 1021.8 138.5 1024.3 137.6L1025.3 140.4C1022.8 141.3 1020.3 142.2 1017.8 143.1ZM790.8 142.7C788.4 141.6 785.9 140.5 783.5 139.4L784.8 136.7C787.2 137.8 789.7 138.9 792 140L790.8 142.7ZM248.7 142.2L247.7 139.4C250.2 138.5 252.7 137.6 255.1 136.6L256.2 139.4C253.8 140.3 251.2 141.3 248.7 142.2ZM64 141.6C61.5 140.9 58.9 140.1 56.3 139.3L57.2 136.4C59.8 137.2 62.3 138 64.8 138.7L64 141.6ZM1353.3 139.2C1350.8 138.4 1348.2 137.5 1345.7 136.6L1346.7 133.8C1349.2 134.7 1351.7 135.5 1354.3 136.4L1353.3 139.2ZM1032 138L1031 135.2C1033.5 134.3 1036 133.3 1038.5 132.4L1039.6 135.2C1037 136.1 1034.5 137 1032 138ZM49.6 137.2C47.1 136.4 44.6 135.5 42 134.6L43 131.8C45.5 132.7 48.1 133.5 50.6 134.3L49.6 137.2ZM262.8 136.7L261.6 133.9C264 132.9 266.4 131.8 268.9 130.6L270.2 133.3C267.6 134.5 265.2 135.6 262.8 136.7ZM777.1 136.3C774.7 135.2 772.3 134 769.9 132.9L771.2 130.2C773.6 131.3 776.1 132.5 778.5 133.6L777.1 136.3ZM1490.4 134.7L1488.5 132.4C1490.5 130.7 1492.4 129 1494.3 127.1L1496.4 129.2C1494.5 131.2 1492.5 133 1490.4 134.7ZM1339 134.2C1336.5 133.3 1334 132.4 1331.5 131.4L1332.6 128.6C1335.1 129.5 1337.6 130.5 1340.1 131.4L1339 134.2ZM1046 132.6L1044.9 129.8C1047.4 128.8 1049.9 127.9 1052.4 126.9L1053.5 129.7C1051 130.7 1048.5 131.7 1046 132.6ZM35.4 132.3C32.9 131.4 30.4 130.5 27.9 129.5L29 126.7C31.5 127.6 34 128.6 36.5 129.5L35.4 132.3ZM276.5 130.3L275.2 127.6C277.5 126.5 279.8 125.3 282.3 124L283.7 126.7C281.1 127.9 278.8 129.1 276.5 130.3ZM763.6 130C761.2 128.9 758.7 127.9 756.3 126.8L757.5 124C760 125 762.4 126.1 764.9 127.2L763.6 130ZM1325 128.9C1322.5 127.9 1320 127 1317.5 126L1318.6 123.2C1321.1 124.2 1323.6 125.1 1326 126.1L1325 128.9ZM1060 127.2L1058.9 124.4L1066.4 121.5L1067.5 124.3L1060 127.2ZM21.3 127C18.8 126 16.4 125 13.9 124L15 121.2C17.5 122.2 20 123.2 22.4 124.2L21.3 127ZM749.8 124.2C747.3 123.2 744.9 122.2 742.4 121.2L743.5 118.4C746 119.4 748.5 120.4 750.9 121.4L749.8 124.2ZM1501.2 124L1498.9 122.1C1500.6 120.1 1502.2 118 1503.7 115.9L1506.1 117.6C1504.6 119.8 1502.9 121.9 1501.2 124ZM1311 123.5C1308.5 122.5 1306 121.5 1303.6 120.5L1304.7 117.7C1307.2 118.7 1309.6 119.7 1312.1 120.7L1311 123.5ZM289.8 123.3L288.4 120.7L290.8 119.4C292.5 118.5 294 117.7 295.4 116.9L296.8 119.5C295.4 120.3 293.8 121.1 292.2 122L289.8 123.3ZM1074 121.8L1072.9 119C1075.4 118 1077.9 117.1 1080.4 116.1L1081.5 118.9C1078.9 119.8 1076.5 120.8 1074 121.8ZM7.4 121.3C5 120.3 2.5 119.2 0 118.1L1.2 115.4C3.7 116.5 6.1 117.5 8.5 118.6L7.4 121.3ZM735.9 118.7C733.4 117.8 730.9 116.9 728.4 116L729.4 113.2C731.9 114.1 734.4 115 736.9 116L735.9 118.7ZM1297 117.9L1289.6 114.9L1290.7 112.1L1298.1 115.1L1297 117.9ZM303 116.4L301.7 113.7C304 112.6 306.5 111.5 309.1 110.4L310.3 113.2C307.7 114.2 305.3 115.3 303 116.4ZM1088 116.4L1086.9 113.6C1089.4 112.6 1091.9 111.7 1094.4 110.8L1095.4 113.6C1093 114.5 1090.5 115.4 1088 116.4ZM721.8 113.7C719.3 112.8 716.8 112 714.2 111.2L715.1 108.3C717.6 109.1 720.2 110 722.7 110.8L721.8 113.7ZM1283.1 112.4C1280.6 111.4 1278.1 110.4 1275.7 109.5L1276.8 106.7C1279.3 107.7 1281.7 108.6 1284.3 109.6L1283.1 112.4ZM1510.1 111.6L1507.5 110C1508.8 107.8 1510.1 105.5 1511.4 103.1L1514.1 104.5C1512.8 107 1511.4 109.4 1510.1 111.6ZM1102 111.2L1101 108.4C1103.5 107.5 1106 106.6 1108.6 105.7L1109.6 108.5C1107 109.4 1104.5 110.3 1102 111.2ZM316.7 110.6L315.6 107.8C318 106.9 320.6 106 323.2 105.1L324.2 107.9C321.6 108.8 319.1 109.7 316.7 110.6ZM707.6 109C705.1 108.2 702.5 107.4 700 106.7L700.9 103.8C703.5 104.6 706 105.3 708.6 106.1L707.6 109ZM1269.1 106.9C1266.6 105.9 1264.1 105 1261.6 104.1L1262.6 101.3C1265.1 102.2 1267.6 103.1 1270.1 104.1L1269.1 106.9ZM1116.1 106.3L1115.2 103.5C1117.8 102.6 1120.3 101.8 1122.8 101L1123.7 103.9C1121.2 104.6 1118.7 105.4 1116.1 106.3ZM330.8 105.7L329.9 102.8C332.4 102 335 101.2 337.6 100.4L338.4 103.3C335.8 104.2 333.3 104.9 330.8 105.7ZM693.3 104.8C690.7 104.1 688.2 103.4 685.6 102.7L686.4 99.8C689 100.5 691.6 101.2 694.1 101.9L693.3 104.8ZM1255.1 101.8C1252.5 100.9 1249.9 100 1247.5 99.3L1248.4 96.4C1250.8 97.2 1253.4 98 1256 98.9L1255.1 101.8ZM1130.4 101.8L1129.6 98.9C1132.2 98.1 1134.8 97.4 1137.3 96.7L1138.1 99.6C1135.6 100.3 1133 101 1130.4 101.8ZM345.2 101.5L344.4 98.6C346.9 97.9 349.6 97.2 352.2 96.5L352.9 99.4C350.3 100.1 347.7 100.8 345.2 101.5ZM678.9 100.9C676.3 100.2 673.7 99.6 671.2 99L671.9 96.1C674.5 96.7 677.1 97.4 679.7 98L678.9 100.9ZM1517.2 98.2L1514.5 97C1515.6 94.7 1516.6 92.2 1517.6 89.7L1520.4 90.8C1519.3 93.3 1518.3 95.8 1517.2 98.2ZM1144.8 97.9L1144.1 95C1146.7 94.3 1149.4 93.7 1151.9 93.2L1152.5 96.1C1150 96.6 1147.4 97.2 1144.8 97.9ZM359.6 97.8L358.9 94.9C361.5 94.3 364.1 93.7 366.7 93.1L367.3 96C364.8 96.6 362.2 97.2 359.6 97.8ZM664.4 97.4C661.8 96.8 659.2 96.2 656.6 95.7L657.2 92.8C659.8 93.4 662.4 93.9 665 94.5L664.4 97.4ZM1240.8 97.3C1238.1 96.5 1235.5 95.8 1233.1 95.2L1233.8 92.3C1236.3 92.9 1238.9 93.6 1241.6 94.4L1240.8 97.3ZM1159.4 94.7L1158.8 91.8C1161.5 91.3 1164.1 90.8 1166.7 90.4L1167.2 93.4C1164.6 93.7 1162 94.2 1159.4 94.7ZM374.2 94.5L373.6 91.6C376.2 91.1 378.8 90.5 381.5 90L382.1 92.9C379.4 93.5 376.8 94 374.2 94.5ZM649.8 94.3C647.2 93.8 644.6 93.3 642 92.8L642.6 89.9C645.2 90.4 647.8 90.9 650.5 91.4L649.8 94.3ZM1226.4 93.7C1223.8 93.2 1221.2 92.8 1218.6 92.4L1219 89.4C1221.7 89.8 1224.3 90.2 1227 90.7L1226.4 93.7ZM1174.1 92.3L1173.7 89.3C1176.4 89 1179.1 88.7 1181.7 88.5L1181.9 91.5C1179.4 91.8 1176.8 92 1174.1 92.3ZM388.9 91.7L388.4 88.7C391 88.2 393.6 87.8 396.3 87.3L396.8 90.3C394.1 90.8 391.5 91.2 388.9 91.7ZM1211.7 91.6C1209.1 91.4 1206.4 91.2 1203.8 91.1L1203.9 88.1C1206.6 88.2 1209.3 88.4 1212 88.7L1211.7 91.6ZM635.1 91.5C632.5 91 629.9 90.6 627.2 90.2L627.7 87.2C630.3 87.6 633 88.1 635.6 88.6L635.1 91.5ZM1188.9 91.1L1188.8 88.1C1191.4 88 1194 87.9 1196.5 87.9H1196.8V90.9H1196.5C1194 90.9 1191.5 91 1188.9 91.1ZM403.7 89.2L403.2 86.2C405.8 85.8 408.5 85.4 411.1 85L411.5 88C408.9 88.4 406.3 88.8 403.7 89.2ZM620.3 89C617.7 88.6 615 88.2 612.4 87.8L612.8 84.8C615.4 85.2 618.1 85.6 620.7 86L620.3 89ZM418.5 87.1L418.1 84.1C420.7 83.8 423.4 83.4 426.1 83.1L426.5 86.1C423.8 86.4 421.1 86.8 418.5 87.1ZM605.6 86.9C603 86.6 600.3 86.2 597.7 85.9L598.1 82.9C600.7 83.2 603.4 83.5 606 83.9L605.6 86.9ZM433.4 85.3L433.1 82.3C435.7 82 438.4 81.7 441.1 81.5L441.4 84.5C438.6 84.8 436 85 433.4 85.3ZM590.7 85.2C588.1 84.9 585.4 84.6 582.8 84.4L583.1 81.4C585.7 81.7 588.4 81.9 591.1 82.2L590.7 85.2ZM448.3 83.8L448 80.8C450.6 80.6 453.3 80.3 456 80.1L456.2 83.1C453.6 83.4 450.9 83.6 448.3 83.8ZM575.9 83.7C573.2 83.5 570.6 83.3 567.9 83.1L568.1 80.1C570.8 80.3 573.4 80.5 576.1 80.7L575.9 83.7ZM463.2 82.7L463 79.7C465.7 79.5 468.3 79.4 471 79.2L471.2 82.2C468.5 82.3 465.8 82.5 463.2 82.7ZM560.9 82.6C558.2 82.4 555.6 82.3 552.9 82.1L553.1 79.1C555.8 79.2 558.4 79.4 561.1 79.6L560.9 82.6ZM478.1 81.8L478 78.8C480.7 78.7 483.3 78.6 486 78.5L486.1 81.5C483.5 81.6 480.8 81.7 478.1 81.8ZM546 81.7C543.3 81.6 540.7 81.5 538 81.4L538.1 78.4C540.8 78.5 543.4 78.6 546.1 78.7L546 81.7ZM493.1 81.3L493 78.3C495.7 78.2 498.3 78.2 501 78.1V81.1C498.4 81.1 495.8 81.2 493.1 81.3ZM531 81.2C528.3 81.1 525.7 81.1 523 81.1V78.1C525.7 78.1 528.3 78.2 531 78.3V81.2ZM508.1 81V78C510.8 78 513.4 78 516.1 78V81C513.4 81 510.7 81 508.1 81Z" fill="#121212"/>
</g>
<defs>
<clipPath id="clip0_137_133">
<rect width="1520.3" height="88.4" fill="white" transform="translate(0 78)"/>
</clipPath>
</defs>
</svg>
