<svg width="1092" height="174" viewBox="0 0 1092 174" fill="none" xmlns="http://www.w3.org/2000/svg">
<path d="M0.560626 2.99999L76.8806 2.99999C95.1206 2.99999 111.201 6.51999 125.121 13.56C139.201 20.44 150.081 30.2 157.761 42.84C165.601 55.48 169.521 70.2 169.521 87C169.521 103.8 165.601 118.52 157.761 131.16C150.081 143.8 139.201 153.64 125.121 160.68C111.201 167.56 95.1206 171 76.8806 171H0.560626L0.560626 2.99999ZM74.9606 139.08C91.7606 139.08 105.121 134.44 115.041 125.16C125.121 115.72 130.161 103 130.161 87C130.161 71 125.121 58.36 115.041 49.08C105.121 39.64 91.7606 34.92 74.9606 34.92L39.4406 34.92V139.08H74.9606ZM328.922 139.8V171L198.842 171L198.842 2.99999L325.802 2.99999V34.2L237.482 34.2V70.68L315.482 70.68V100.92L237.482 100.92V139.8L328.922 139.8ZM439.789 173.88C422.669 173.88 407.149 170.2 393.229 162.84C379.469 155.32 368.589 145 360.589 131.88C352.749 118.6 348.829 103.64 348.829 87C348.829 70.36 352.749 55.48 360.589 42.36C368.589 29.08 379.469 18.76 393.229 11.4C407.149 3.88 422.749 0.119997 440.029 0.119997C454.589 0.119997 467.709 2.68 479.389 7.8C491.229 12.92 501.149 20.28 509.149 29.88L484.189 52.92C472.829 39.8 458.749 33.24 441.949 33.24C431.549 33.24 422.269 35.56 414.109 40.2C405.949 44.68 399.549 51 394.909 59.16C390.429 67.32 388.189 76.6 388.189 87C388.189 97.4 390.429 106.68 394.909 114.84C399.549 123 405.949 129.4 414.109 134.04C422.269 138.52 431.549 140.76 441.949 140.76C458.749 140.76 472.829 134.12 484.189 120.84L509.149 143.88C501.149 153.64 491.229 161.08 479.389 166.2C467.549 171.32 454.349 173.88 439.789 173.88ZM642.763 135H564.763L549.883 171H510.043L584.923 2.99999L623.323 2.99999L698.443 171L657.643 171L642.763 135ZM630.523 105.48L603.883 41.16L577.243 105.48L630.523 105.48ZM868.753 171L868.513 70.2L819.073 153.24H801.553L752.353 72.36V171H715.873V2.99999L748.033 2.99999L810.913 107.4L872.833 2.99999L904.753 2.99999L905.233 171H868.753ZM1025.73 111.48V171L986.852 171V111L921.812 2.99999L963.092 2.99999L1007.97 77.64L1052.85 2.99999L1091.01 2.99999L1025.73 111.48Z" fill="#F6F8FA"/>
</svg>
